<svg xmlns="http://www.w3.org/2000/svg" version="1.1" xmlns:xlink="http://www.w3.org/1999/xlink" xmlns:svgjs="http://svgjs.dev/svgjs" width="1500" height="1500" viewBox="0 0 1500 1500"><rect width="1500" height="1500" fill="#ffffff"></rect><g transform="matrix(0.6666666666666666,0,0,0.6666666666666666,249.95232717072048,115.62688172043016)"><svg viewBox="0 0 196 248" data-background-color="#fefbf6" preserveAspectRatio="xMidYMid meet" height="1897" width="1500" xmlns="http://www.w3.org/2000/svg" xmlns:xlink="http://www.w3.org/1999/xlink"><g id="tight-bounds" transform="matrix(1,0,0,1,0.009343874538785713,0.4000000000000057)"><svg viewBox="0 0 195.9813122509224 247.2" height="247.2" width="195.9813122509224"><g><svg viewBox="0 0 397.4975999999999 501.3815123055821" height="247.2" width="195.9813122509224"><g><rect width="397.4975999999999" height="15.755236505474187" x="0" y="269.67543462166014" fill="#000000" opacity="1" stroke-width="0" stroke="transparent" fill-opacity="1" class="rect-yte-0" data-fill-palette-color="secondary" rx="1%" id="yte-0" data-palette-color="#29231d"></rect></g><g transform="matrix(1,0,0,1,0.9887999999999693,326.6747457487945)"><svg viewBox="0 0 395.52 174.70676655678753" height="174.70676655678753" width="395.52"><g id="textblocktransform"><svg viewBox="0 0 395.52 174.70676655678753" height="174.70676655678753" width="395.52" id="textblock"><g><svg viewBox="0 0 395.52 174.70676655678753" height="174.70676655678753" width="395.52"><g transform="matrix(1,0,0,1,0,0)"><svg width="395.52" viewBox="3.49 -35.5 81.46000000000001 35.99" height="174.70676655678753" data-palette-color="#29231d"><path d="M23.19-8.11L23.19-8.11Q23.19-6.32 22.52-4.76 21.85-3.2 20.68-2.03 19.51-0.85 17.94-0.18 16.38 0.49 14.6 0.49L14.6 0.49 12.11 0.49Q10.33 0.49 8.75-0.18 7.18-0.85 6.01-2.03 4.83-3.2 4.16-4.76 3.49-6.32 3.49-8.11L3.49-8.11 3.49-26.9Q3.49-28.69 4.16-30.25 4.83-31.81 6.01-32.98 7.18-34.16 8.75-34.83 10.33-35.5 12.11-35.5L12.11-35.5 14.6-35.5Q16.38-35.5 17.94-34.83 19.51-34.16 20.68-32.98 21.85-31.81 22.52-30.25 23.19-28.69 23.19-26.9L23.19-26.9 23.19-25.49 20.04-25 20.04-26.9Q20.04-28.08 19.6-29.09 19.17-30.1 18.41-30.86 17.65-31.62 16.64-32.06 15.63-32.5 14.45-32.5L14.45-32.5 12.26-32.5Q11.08-32.5 10.07-32.06 9.06-31.62 8.29-30.86 7.52-30.1 7.08-29.09 6.64-28.08 6.64-26.9L6.64-26.9 6.64-8.11Q6.64-6.93 7.08-5.92 7.52-4.91 8.29-4.14 9.06-3.37 10.07-2.93 11.08-2.49 12.26-2.49L12.26-2.49 14.45-2.49Q15.63-2.49 16.64-2.93 17.65-3.37 18.41-4.14 19.17-4.91 19.6-5.92 20.04-6.93 20.04-8.11L20.04-8.11 20.04-10.01 23.19-9.5 23.19-8.11ZM39.55-22.14L36.55-22.14Q35.64-22.14 34.85-21.8 34.06-21.46 33.47-20.87 32.88-20.29 32.54-19.49 32.2-18.7 32.2-17.8L32.2-17.8 32.2 0 29.2 0 29.2-25 30.2-25 31.83-22.46Q32.86-23.85 34.41-24.67 35.96-25.49 37.79-25.49L37.79-25.49 39.55-25.49 39.55-22.14ZM60.25-6.86L60.25-6.86Q60.25-5.35 59.68-4 59.1-2.66 58.1-1.66 57.1-0.66 55.76-0.09 54.41 0.49 52.9 0.49L52.9 0.49 50.9 0.49Q49.38 0.49 48.04-0.09 46.7-0.66 45.7-1.66 44.7-2.66 44.12-4 43.55-5.35 43.55-6.86L43.55-6.86 43.55-18.14Q43.55-19.65 44.12-21 44.7-22.34 45.7-23.34 46.7-24.34 48.04-24.91 49.38-25.49 50.9-25.49L50.9-25.49 52.9-25.49Q54.41-25.49 55.76-24.91 57.1-24.34 58.1-23.34 59.1-22.34 59.68-21 60.25-19.65 60.25-18.14L60.25-18.14 60.25-6.86ZM57.25-6.69L57.25-18.31Q57.25-19.21 56.9-20.01 56.56-20.8 55.98-21.39 55.39-21.97 54.6-22.31 53.8-22.66 52.9-22.66L52.9-22.66 50.9-22.66Q50-22.66 49.2-22.31 48.41-21.97 47.82-21.39 47.24-20.8 46.89-20.01 46.55-19.21 46.55-18.31L46.55-18.31 46.55-6.69Q46.55-5.79 46.89-4.99 47.24-4.2 47.82-3.61 48.41-3.03 49.2-2.69 50-2.34 50.9-2.34L50.9-2.34 52.9-2.34Q53.8-2.34 54.6-2.69 55.39-3.03 55.98-3.61 56.56-4.2 56.9-4.99 57.25-5.79 57.25-6.69L57.25-6.69ZM84.95 0L81.05 0 70.84-12.5 81.05-25 84.95-25 74.5-12.5 84.95 0ZM70.26 0L67.25 0 67.25-35.01 70.26-35.01 70.26 0Z" opacity="1" transform="matrix(1,0,0,1,0,0)" fill="#000000" class="wordmark-text-0" data-fill-palette-color="primary" id="text-0"></path></svg></g></svg></g></svg></g></svg></g><g transform="matrix(1,0,0,1,76.53311999999997,0)"><svg viewBox="0 0 244.43135999999998 228.43135999999998" height="228.43135999999998" width="244.43135999999998"><g><svg xmlns="http://www.w3.org/2000/svg" xmlns:xlink="http://www.w3.org/1999/xlink" version="1.1" x="8" y="0" viewBox="1 1 78 78" enable-background="new 0 0 80 80" xml:space="preserve" height="228.43135999999998" width="228.43135999999998" class="icon-icon-0" data-fill-palette-color="accent" id="icon-0"><path d="M40 1C18.5 1 1 18.5 1 40 1 61.51 18.5 79 40 79 61.512 79 79 61.51 79 40 79 18.5 61.512 1 40 1M40 77.5C19.291 77.5 2.5 60.71 2.5 40S19.291 2.5 40 2.5C60.711 2.5 77.5 19.29 77.5 40S60.711 77.5 40 77.5" fill="#000000" data-fill-palette-color="accent"></path><path d="M52.54 23.75H27.46C25.42 23.75 23.75 25.42 23.75 27.46V52.54C23.75 54.58 25.42 56.25 27.46 56.25H52.54C54.58 56.25 56.25 54.58 56.25 52.54V27.46C56.25 25.42 54.58 23.75 52.54 23.75M54.75 52.54C54.75 53.76 53.76 54.75 52.54 54.75H27.46A2.21 2.21 0 0 1 25.25 52.54V27.46C25.25 26.24 26.24 25.25 27.46 25.25H52.54C53.76 25.25 54.75 26.24 54.75 27.46z" fill="#000000" data-fill-palette-color="accent"></path><g fill="#51cc2f" data-fill-palette-color="accent"><path d="M29.667 19.021A0.75 0.75 0 0 0 28.917 19.771V21.979A0.75 0.75 0 0 0 30.417 21.979V19.771A0.75 0.75 0 0 0 29.667 19.021" fill="#000000" data-fill-palette-color="accent"></path><path d="M33.8 19.021A0.75 0.75 0 0 0 33.05 19.771V21.979A0.75 0.75 0 0 0 34.55 21.979V19.771A0.75 0.75 0 0 0 33.8 19.021" fill="#000000" data-fill-palette-color="accent"></path><path d="M37.934 19.021A0.75 0.75 0 0 0 37.184 19.771V21.979A0.75 0.75 0 0 0 38.684 21.979V19.771A0.75 0.75 0 0 0 37.934 19.021" fill="#000000" data-fill-palette-color="accent"></path><path d="M42.066 19.021A0.75 0.75 0 0 0 41.316 19.771V21.979A0.75 0.75 0 0 0 42.816 21.979V19.771A0.75 0.75 0 0 0 42.066 19.021" fill="#000000" data-fill-palette-color="accent"></path><path d="M46.2 19.021A0.75 0.75 0 0 0 45.45 19.771V21.979A0.75 0.75 0 0 0 46.95 21.979V19.771A0.75 0.75 0 0 0 46.2 19.021" fill="#000000" data-fill-palette-color="accent"></path><path d="M50.333 19.021A0.75 0.75 0 0 0 49.583 19.771V21.979A0.75 0.75 0 0 0 51.083 21.979V19.771A0.75 0.75 0 0 0 50.333 19.021" fill="#000000" data-fill-palette-color="accent"></path><path d="M29.667 57.271A0.75 0.75 0 0 0 28.917 58.021V60.229A0.75 0.75 0 0 0 30.417 60.229V58.021A0.75 0.75 0 0 0 29.667 57.271" fill="#000000" data-fill-palette-color="accent"></path><path d="M33.8 57.271A0.75 0.75 0 0 0 33.05 58.021V60.229A0.75 0.75 0 0 0 34.55 60.229V58.021A0.75 0.75 0 0 0 33.8 57.271" fill="#000000" data-fill-palette-color="accent"></path><path d="M37.934 57.271A0.75 0.75 0 0 0 37.184 58.021V60.229A0.75 0.75 0 0 0 38.684 60.229V58.021A0.75 0.75 0 0 0 37.934 57.271" fill="#000000" data-fill-palette-color="accent"></path><path d="M42.066 57.271A0.75 0.75 0 0 0 41.316 58.021V60.229A0.75 0.75 0 0 0 42.816 60.229V58.021A0.75 0.75 0 0 0 42.066 57.271" fill="#000000" data-fill-palette-color="accent"></path><path d="M46.2 57.271A0.75 0.75 0 0 0 45.45 58.021V60.229A0.75 0.75 0 0 0 46.95 60.229V58.021A0.75 0.75 0 0 0 46.2 57.271" fill="#000000" data-fill-palette-color="accent"></path><path d="M50.333 57.271A0.75 0.75 0 0 0 49.583 58.021V60.229A0.75 0.75 0 0 0 51.083 60.229V58.021A0.75 0.75 0 0 0 50.333 57.271" fill="#000000" data-fill-palette-color="accent"></path></g><g fill="#51cc2f" data-fill-palette-color="accent"><path d="M21.979 49.583H19.772A0.75 0.75 0 0 0 19.772 51.083H21.979A0.75 0.75 0 0 0 21.979 49.583" fill="#000000" data-fill-palette-color="accent"></path><path d="M21.979 45.45H19.772A0.75 0.75 0 0 0 19.772 46.95H21.979A0.75 0.75 0 0 0 21.979 45.45" fill="#000000" data-fill-palette-color="accent"></path><path d="M21.979 41.316H19.772A0.75 0.75 0 0 0 19.772 42.816H21.979A0.75 0.75 0 0 0 21.979 41.316" fill="#000000" data-fill-palette-color="accent"></path><path d="M21.979 37.184H19.772A0.75 0.75 0 0 0 19.772 38.684H21.979A0.75 0.75 0 0 0 21.979 37.184" fill="#000000" data-fill-palette-color="accent"></path><path d="M21.979 33.05H19.772A0.75 0.75 0 0 0 19.772 34.55H21.979A0.75 0.75 0 0 0 21.979 33.05" fill="#000000" data-fill-palette-color="accent"></path><path d="M21.979 28.917H19.772A0.75 0.75 0 0 0 19.772 30.417H21.979A0.75 0.75 0 0 0 21.979 28.917" fill="#000000" data-fill-palette-color="accent"></path><path d="M60.229 49.583H58.022A0.75 0.75 0 0 0 58.022 51.083H60.229A0.75 0.75 0 0 0 60.229 49.583" fill="#000000" data-fill-palette-color="accent"></path><path d="M60.229 45.45H58.022A0.75 0.75 0 0 0 58.022 46.95H60.229A0.75 0.75 0 0 0 60.229 45.45" fill="#000000" data-fill-palette-color="accent"></path><path d="M60.229 41.316H58.022A0.75 0.75 0 0 0 58.022 42.816H60.229A0.75 0.75 0 0 0 60.229 41.316" fill="#000000" data-fill-palette-color="accent"></path><path d="M60.229 37.184H58.022A0.75 0.75 0 0 0 58.022 38.684H60.229A0.75 0.75 0 0 0 60.229 37.184" fill="#000000" data-fill-palette-color="accent"></path><path d="M60.229 33.05H58.022A0.75 0.75 0 0 0 58.022 34.55H60.229A0.75 0.75 0 0 0 60.229 33.05" fill="#000000" data-fill-palette-color="accent"></path><path d="M58.021 30.417H60.228A0.75 0.75 0 0 0 60.228 28.917H58.021A0.75 0.75 0 0 0 58.021 30.417" fill="#000000" data-fill-palette-color="accent"></path></g></svg></g></svg></g><g></g></svg></g><defs></defs></svg><rect width="195.9813122509224" height="247.2" fill="none" stroke="none" visibility="hidden"></rect></g></svg></g></svg>